<svg width="32" height="40" viewBox="0 0 32 40" fill="none" xmlns="http://www.w3.org/2000/svg">
<path d="M16 24C15.4696 24 14.9609 24.2107 14.5858 24.5858C14.2107 24.9609 14 25.4696 14 26V30C14 30.5304 14.2107 31.0391 14.5858 31.4142C14.9609 31.7893 15.4696 32 16 32C16.5304 32 17.0391 31.7893 17.4142 31.4142C17.7893 31.0391 18 30.5304 18 30V26C18 25.4696 17.7893 24.9609 17.4142 24.5858C17.0391 24.2107 16.5304 24 16 24ZM16.76 18.16C16.398 17.9921 15.994 17.9364 15.6 18L15.24 18.12L14.88 18.3L14.58 18.54C14.3898 18.7316 14.2403 18.9597 14.1406 19.2107C14.041 19.4616 13.9931 19.7301 14 20C13.9985 20.2632 14.0489 20.5241 14.1485 20.7678C14.248 21.0115 14.3946 21.2331 14.58 21.42C14.7702 21.6021 14.9945 21.7448 15.24 21.84C15.4774 21.952 15.7376 22.0068 16 22C16.2632 22.0015 16.5241 21.9511 16.7678 21.8515C17.0115 21.752 17.2331 21.6054 17.42 21.42C17.6054 21.2331 17.752 21.0115 17.8515 20.7678C17.9511 20.5241 18.0015 20.2632 18 20C18.0015 19.7368 17.9511 19.4759 17.8515 19.2322C17.752 18.9885 17.6054 18.7669 17.42 18.58C17.2256 18.4033 17.0024 18.2613 16.76 18.16ZM32 13.88C31.9792 13.6963 31.9389 13.5153 31.88 13.34V13.16C31.7838 12.9544 31.6556 12.7653 31.5 12.6L19.5 0.6C19.3347 0.444432 19.1456 0.316162 18.94 0.22H18.74C18.5455 0.116006 18.3365 0.041844 18.12 0H6C4.4087 0 2.88258 0.632141 1.75736 1.75736C0.632141 2.88258 0 4.4087 0 6V34C0 35.5913 0.632141 37.1174 1.75736 38.2426C2.88258 39.3679 4.4087 40 6 40H26C27.5913 40 29.1174 39.3679 30.2426 38.2426C31.3679 37.1174 32 35.5913 32 34V14C32 14 32 14 32 13.88ZM20 6.82L25.18 12H22C21.4696 12 20.9609 11.7893 20.5858 11.4142C20.2107 11.0391 20 10.5304 20 10V6.82ZM28 34C28 34.5304 27.7893 35.0391 27.4142 35.4142C27.0391 35.7893 26.5304 36 26 36H6C5.46957 36 4.96086 35.7893 4.58579 35.4142C4.21071 35.0391 4 34.5304 4 34V6C4 5.46957 4.21071 4.96086 4.58579 4.58579C4.96086 4.21071 5.46957 4 6 4H16V10C16 11.5913 16.6321 13.1174 17.7574 14.2426C18.8826 15.3679 20.4087 16 22 16H28V34Z" fill="white"/>
</svg>
