<svg width="40" height="40" viewBox="0 0 40 40" fill="none" xmlns="http://www.w3.org/2000/svg">
<path d="M36.82 0.000279662H2.94C2.55916 -0.00500958 2.181 0.0647747 1.82713 0.205647C1.47326 0.34652 1.15061 0.555721 0.877595 0.821304C0.604583 1.08689 0.386563 1.40365 0.235984 1.7535C0.0854048 2.10335 0.00521679 2.47944 0 2.86028V37.1403C0.00521679 37.5211 0.0854048 37.8972 0.235984 38.2471C0.386563 38.5969 0.604583 38.9137 0.877595 39.1793C1.15061 39.4448 1.47326 39.654 1.82713 39.7949C2.181 39.9358 2.55916 40.0056 2.94 40.0003H36.82C37.2008 40.0056 37.579 39.9358 37.9329 39.7949C38.2867 39.654 38.6094 39.4448 38.8824 39.1793C39.1554 38.9137 39.3734 38.5969 39.524 38.2471C39.6746 37.8972 39.7548 37.5211 39.76 37.1403V2.86028C39.7548 2.47944 39.6746 2.10335 39.524 1.7535C39.3734 1.40365 39.1554 1.08689 38.8824 0.821304C38.6094 0.555721 38.2867 0.34652 37.9329 0.205647C37.579 0.0647747 37.2008 -0.00500958 36.82 0.000279662ZM12.06 33.4803H6.06V15.4803H12.06V33.4803ZM9.06 12.9603C8.23252 12.9603 7.43894 12.6316 6.85383 12.0465C6.26871 11.4613 5.94 10.6678 5.94 9.84028C5.94 9.0128 6.26871 8.21922 6.85383 7.63411C7.43894 7.04899 8.23252 6.72028 9.06 6.72028C9.49939 6.67045 9.94435 6.71399 10.3658 6.84805C10.7871 6.9821 11.1755 7.20366 11.5053 7.4982C11.8351 7.79275 12.0991 8.15364 12.2797 8.55724C12.4604 8.96085 12.5538 9.39807 12.5538 9.84028C12.5538 10.2825 12.4604 10.7197 12.2797 11.1233C12.0991 11.5269 11.8351 11.8878 11.5053 12.1824C11.1755 12.4769 10.7871 12.6985 10.3658 12.8325C9.94435 12.9666 9.49939 13.0101 9.06 12.9603ZM33.7 33.4803H27.7V23.8203C27.7 21.4003 26.84 19.8203 24.66 19.8203C23.9853 19.8252 23.3284 20.0368 22.7777 20.4266C22.227 20.8164 21.809 21.3656 21.58 22.0003C21.4235 22.4704 21.3557 22.9654 21.38 23.4603V33.4603H15.38C15.38 33.4603 15.38 17.1003 15.38 15.4603H21.38V18.0003C21.9251 17.0545 22.7178 16.2753 23.6729 15.7467C24.6279 15.218 25.7091 14.96 26.8 15.0003C30.8 15.0003 33.7 17.5803 33.7 23.1203V33.4803Z" fill="white"/>
</svg>
